<svg width="16" height="17" viewBox="0 0 16 17" fill="none" xmlns="http://www.w3.org/2000/svg">
<path d="M10.6867 7.18667C10.7358 7.14089 10.7752 7.08569 10.8025 7.02436C10.8298 6.96303 10.8445 6.89682 10.8457 6.82968C10.8469 6.76255 10.8346 6.69586 10.8094 6.6336C10.7843 6.57134 10.7468 6.51479 10.6994 6.46731C10.6519 6.41983 10.5953 6.3824 10.5331 6.35725C10.4708 6.33211 10.4041 6.31976 10.337 6.32094C10.2698 6.32212 10.2036 6.33682 10.1423 6.36415C10.081 6.39147 10.0258 6.43088 9.98 6.48L7 9.46L6.02 8.48C5.92522 8.39168 5.79985 8.3436 5.67032 8.34588C5.54078 8.34817 5.41719 8.40064 5.32558 8.49225C5.23398 8.58386 5.1815 8.70745 5.17922 8.83699C5.17693 8.96652 5.22501 9.09188 5.31333 9.18667L6.64667 10.52C6.74042 10.6136 6.8675 10.6662 7 10.6662C7.1325 10.6662 7.25958 10.6136 7.35333 10.52L10.6867 7.18667Z" fill="#1F66D9"/>
<path fill-rule="evenodd" clip-rule="evenodd" d="M7.99999 1.33334C4.04199 1.33334 0.833328 4.54201 0.833328 8.50001C0.833328 12.458 4.04199 15.6667 7.99999 15.6667C11.958 15.6667 15.1667 12.458 15.1667 8.50001C15.1667 4.54201 11.958 1.33334 7.99999 1.33334ZM1.83333 8.50001C1.83333 6.86451 2.48303 5.29599 3.6395 4.13952C4.79598 2.98304 6.36449 2.33334 7.99999 2.33334C9.6355 2.33334 11.204 2.98304 12.3605 4.13952C13.517 5.29599 14.1667 6.86451 14.1667 8.50001C14.1667 10.1355 13.517 11.704 12.3605 12.8605C11.204 14.017 9.6355 14.6667 7.99999 14.6667C6.36449 14.6667 4.79598 14.017 3.6395 12.8605C2.48303 11.704 1.83333 10.1355 1.83333 8.50001Z" fill="#1F66D9"/>
</svg>
