<svg width="17" height="17" viewBox="0 0 17 17" fill="none" xmlns="http://www.w3.org/2000/svg">
<path d="M11.1867 7.18667C11.2358 7.14089 11.2752 7.08569 11.3025 7.02436C11.3298 6.96303 11.3445 6.89682 11.3457 6.82968C11.3469 6.76255 11.3346 6.69586 11.3094 6.6336C11.2843 6.57134 11.2468 6.51479 11.1994 6.46731C11.1519 6.41983 11.0953 6.3824 11.0331 6.35725C10.9708 6.33211 10.9041 6.31976 10.837 6.32094C10.7698 6.32212 10.7036 6.33682 10.6423 6.36415C10.581 6.39147 10.5258 6.43088 10.48 6.48L7.5 9.46L6.52 8.48C6.42522 8.39168 6.29985 8.3436 6.17032 8.34588C6.04078 8.34817 5.91719 8.40064 5.82558 8.49225C5.73398 8.58386 5.6815 8.70745 5.67922 8.83699C5.67693 8.96652 5.72501 9.09188 5.81333 9.18667L7.14667 10.52C7.24042 10.6136 7.3675 10.6662 7.5 10.6662C7.6325 10.6662 7.75958 10.6136 7.85333 10.52L11.1867 7.18667Z" fill="white"/>
<path fill-rule="evenodd" clip-rule="evenodd" d="M8.49998 1.33334C4.54198 1.33334 1.33331 4.54201 1.33331 8.50001C1.33331 12.458 4.54198 15.6667 8.49998 15.6667C12.458 15.6667 15.6666 12.458 15.6666 8.50001C15.6666 4.54201 12.458 1.33334 8.49998 1.33334ZM2.33331 8.50001C2.33331 6.86451 2.98301 5.29599 4.13949 4.13952C5.29596 2.98304 6.86448 2.33334 8.49998 2.33334C10.1355 2.33334 11.704 2.98304 12.8605 4.13952C14.0169 5.29599 14.6666 6.86451 14.6666 8.50001C14.6666 10.1355 14.0169 11.704 12.8605 12.8605C11.704 14.017 10.1355 14.6667 8.49998 14.6667C6.86448 14.6667 5.29596 14.017 4.13949 12.8605C2.98301 11.704 2.33331 10.1355 2.33331 8.50001Z" fill="white"/>
</svg>
