<svg width="30" height="21" viewBox="0 0 30 21" fill="none" xmlns="http://www.w3.org/2000/svg">
<path fill-rule="evenodd" clip-rule="evenodd" d="M0 1.5C0 0.671573 0.671573 0 1.5 0H28.5C29.3284 0 30 0.671573 30 1.5C30 2.32843 29.3284 3 28.5 3H1.5C0.671573 3 0 2.32843 0 1.5ZM0 10.5C0 9.67157 0.671573 9 1.5 9H28.5C29.3284 9 30 9.67157 30 10.5C30 11.3284 29.3284 12 28.5 12H1.5C0.671573 12 0 11.3284 0 10.5ZM1.5 18C0.671573 18 0 18.6716 0 19.5C0 20.3284 0.671573 21 1.5 21H28.5C29.3284 21 30 20.3284 30 19.5C30 18.6716 29.3284 18 28.5 18H1.5Z" fill="url(#paint0_linear_1_1743)"/>
<defs>
<linearGradient id="paint0_linear_1_1743" x1="0" y1="20.9999" x2="30" y2="20.9999" gradientUnits="userSpaceOnUse">
<stop stop-color="#224FD6"/>
<stop offset="1" stop-color="#224FD6"/>
</linearGradient>
</defs>
</svg>
