<svg width="64" height="64" viewBox="0 0 64 64" fill="none" xmlns="http://www.w3.org/2000/svg">
<path d="M52 10.5H12C11.0717 10.5 10.1815 10.8687 9.52513 11.5251C8.86875 12.1815 8.5 13.0717 8.5 14V28.6925C8.5 50.7525 27.17 58.0725 30.9125 59.315C31.6176 59.555 32.3824 59.555 33.0875 59.315C36.8375 58.065 55.5 50.7525 55.5 28.6925V14C55.5 13.0717 55.1312 12.1815 54.4749 11.5251C53.8185 10.8687 52.9283 10.5 52 10.5ZM52.5 28.6975C52.5 48.6975 35.54 55.345 32.14 56.4725C32.0499 56.5074 31.9501 56.5074 31.86 56.4725C28.46 55.345 11.5 48.6975 11.5 28.6975V14C11.5 13.8674 11.5527 13.7402 11.6464 13.6464C11.7402 13.5527 11.8674 13.5 12 13.5H52C52.1326 13.5 52.2598 13.5527 52.3536 13.6464C52.4473 13.7402 52.5 13.8674 52.5 14V28.6975ZM43.06 24.9475C43.3409 25.2288 43.4987 25.61 43.4987 26.0075C43.4987 26.405 43.3409 26.7862 43.06 27.0675L29.06 41.0675C28.7787 41.3484 28.3975 41.5062 28 41.5062C27.6025 41.5062 27.2213 41.3484 26.94 41.0675L20.94 35.0675C20.675 34.7832 20.5308 34.4071 20.5376 34.0185C20.5445 33.6299 20.7019 33.2591 20.9768 32.9843C21.2516 32.7094 21.6224 32.552 22.011 32.5452C22.3996 32.5383 22.7757 32.6825 23.06 32.9475L28 37.8775L40.94 24.94C41.2212 24.6591 41.6025 24.5013 42 24.5013C42.3975 24.5013 42.7788 24.6591 43.06 24.94V24.9475Z" fill="white"/>
</svg>
