<svg width="64" height="64" viewBox="0 0 64 64" fill="none" xmlns="http://www.w3.org/2000/svg">
<path d="M63.1375 29.0225L51.75 15.75C51.421 15.358 51.0101 15.043 50.5462 14.827C50.0823 14.611 49.5767 14.4994 49.065 14.5H8C7.07174 14.5 6.1815 14.8688 5.52513 15.5251C4.86875 16.1815 4.5 17.0717 4.5 18V46C4.5 46.9283 4.86875 47.8185 5.52513 48.4749C6.1815 49.1313 7.07174 49.5 8 49.5H12.65C12.9943 51.1954 13.9141 52.7197 15.2536 53.8146C16.5931 54.9094 18.27 55.5075 20 55.5075C21.73 55.5075 23.4069 54.9094 24.7464 53.8146C26.0859 52.7197 27.0057 51.1954 27.35 49.5H40.65C40.9943 51.1954 41.9141 52.7197 43.2536 53.8146C44.5931 54.9094 46.27 55.5075 48 55.5075C49.73 55.5075 51.4069 54.9094 52.7464 53.8146C54.0859 52.7197 55.0057 51.1954 55.35 49.5H60C60.9283 49.5 61.8185 49.1313 62.4749 48.4749C63.1312 47.8185 63.5 46.9283 63.5 46V30C63.4999 29.6413 63.3713 29.2945 63.1375 29.0225ZM49.4625 17.6925L58.735 28.5H43.5V17.5H49.065C49.1416 17.4995 49.2172 17.5166 49.2862 17.55C49.3551 17.5834 49.4154 17.6321 49.4625 17.6925ZM25.5 28.5V17.5H40.5V28.5H25.5ZM8 17.5H22.5V28.5H7.5V18C7.5 17.8674 7.55268 17.7402 7.64645 17.6464C7.74021 17.5527 7.86739 17.5 8 17.5ZM20 52.5C19.11 52.5 18.24 52.2361 17.4999 51.7416C16.7599 51.2472 16.1831 50.5443 15.8425 49.7221C15.5019 48.8998 15.4128 47.995 15.5865 47.1221C15.7601 46.2492 16.1887 45.4474 16.818 44.818C17.4474 44.1887 18.2492 43.7601 19.1221 43.5865C19.995 43.4128 20.8998 43.5019 21.7221 43.8425C22.5443 44.1831 23.2471 44.7599 23.7416 45.4999C24.2361 46.24 24.5 47.11 24.5 48C24.5 49.1935 24.0259 50.3381 23.182 51.182C22.3381 52.0259 21.1935 52.5 20 52.5ZM48 52.5C47.11 52.5 46.24 52.2361 45.4999 51.7416C44.7599 51.2472 44.1831 50.5443 43.8425 49.7221C43.5019 48.8998 43.4128 47.995 43.5865 47.1221C43.7601 46.2492 44.1887 45.4474 44.818 44.818C45.4474 44.1887 46.2492 43.7601 47.1221 43.5865C47.995 43.4128 48.8998 43.5019 49.7221 43.8425C50.5443 44.1831 51.2471 44.7599 51.7416 45.4999C52.2361 46.24 52.5 47.11 52.5 48C52.5 49.1935 52.0259 50.3381 51.182 51.182C50.3381 52.0259 49.1935 52.5 48 52.5ZM60 46.5H55.35C55.0057 44.8046 54.0859 43.2803 52.7464 42.1854C51.4069 41.0906 49.73 40.4925 48 40.4925C46.27 40.4925 44.5931 41.0906 43.2536 42.1854C41.9141 43.2803 40.9943 44.8046 40.65 46.5H27.35C27.0057 44.8046 26.0859 43.2803 24.7464 42.1854C23.4069 41.0906 21.73 40.4925 20 40.4925C18.27 40.4925 16.5931 41.0906 15.2536 42.1854C13.9141 43.2803 12.9943 44.8046 12.65 46.5H8C7.86739 46.5 7.74021 46.4473 7.64645 46.3536C7.55268 46.2598 7.5 46.1326 7.5 46V31.5H60.5V46C60.5 46.1326 60.4473 46.2598 60.3536 46.3536C60.2598 46.4473 60.1326 46.5 60 46.5Z" fill="white"/>
</svg>
