<svg width="64" height="64" viewBox="0 0 64 64" fill="none" xmlns="http://www.w3.org/2000/svg">
<path d="M38.5 24V12C38.5 11.6022 38.658 11.2206 38.9393 10.9393C39.2206 10.658 39.6022 10.5 40 10.5C40.3978 10.5 40.7794 10.658 41.0607 10.9393C41.342 11.2206 41.5 11.6022 41.5 12V22.5H52C52.3978 22.5 52.7794 22.658 53.0607 22.9393C53.342 23.2206 53.5 23.6022 53.5 24C53.5 24.3978 53.342 24.7794 53.0607 25.0607C52.7794 25.342 52.3978 25.5 52 25.5H40C39.6022 25.5 39.2206 25.342 38.9393 25.0607C38.658 24.7794 38.5 24.3978 38.5 24ZM24 38.5H12C11.6022 38.5 11.2206 38.658 10.9393 38.9393C10.658 39.2206 10.5 39.6022 10.5 40C10.5 40.3978 10.658 40.7794 10.9393 41.0607C11.2206 41.342 11.6022 41.5 12 41.5H22.5V52C22.5 52.3978 22.658 52.7794 22.9393 53.0607C23.2206 53.342 23.6022 53.5 24 53.5C24.3978 53.5 24.7794 53.342 25.0607 53.0607C25.342 52.7794 25.5 52.3978 25.5 52V40C25.5 39.6022 25.342 39.2206 25.0607 38.9393C24.7794 38.658 24.3978 38.5 24 38.5ZM52 38.5H40C39.6022 38.5 39.2206 38.658 38.9393 38.9393C38.658 39.2206 38.5 39.6022 38.5 40V52C38.5 52.3978 38.658 52.7794 38.9393 53.0607C39.2206 53.342 39.6022 53.5 40 53.5C40.3978 53.5 40.7794 53.342 41.0607 53.0607C41.342 52.7794 41.5 52.3978 41.5 52V41.5H52C52.3978 41.5 52.7794 41.342 53.0607 41.0607C53.342 40.7794 53.5 40.3978 53.5 40C53.5 39.6022 53.342 39.2206 53.0607 38.9393C52.7794 38.658 52.3978 38.5 52 38.5ZM24 10.5C23.6022 10.5 23.2206 10.658 22.9393 10.9393C22.658 11.2206 22.5 11.6022 22.5 12V22.5H12C11.6022 22.5 11.2206 22.658 10.9393 22.9393C10.658 23.2206 10.5 23.6022 10.5 24C10.5 24.3978 10.658 24.7794 10.9393 25.0607C11.2206 25.342 11.6022 25.5 12 25.5H24C24.3978 25.5 24.7794 25.342 25.0607 25.0607C25.342 24.7794 25.5 24.3978 25.5 24V12C25.5 11.6022 25.342 11.2206 25.0607 10.9393C24.7794 10.658 24.3978 10.5 24 10.5Z" fill="white"/>
</svg>
