<svg width="64" height="64" viewBox="0 0 64 64" fill="none" xmlns="http://www.w3.org/2000/svg">
<path d="M58.735 49.3075C58.3882 49.5024 57.9782 49.5516 57.5952 49.4442C57.2122 49.3369 56.8874 49.0818 56.6925 48.735L39.1225 17.5H33.5V20C33.5 20.3978 33.342 20.7794 33.0607 21.0607C32.7794 21.342 32.3978 21.5 32 21.5C31.6022 21.5 31.2206 21.342 30.9393 21.0607C30.658 20.7794 30.5 20.3978 30.5 20V17.5H24.8775L7.3075 48.735C7.21207 48.9087 7.08315 49.0619 6.92819 49.1855C6.77324 49.3091 6.59531 49.4008 6.40471 49.4552C6.2141 49.5097 6.0146 49.5258 5.81772 49.5026C5.62085 49.4795 5.43051 49.4176 5.25772 49.3205C5.08492 49.2233 4.93309 49.0929 4.811 48.9367C4.68892 48.7806 4.599 48.6017 4.54644 48.4106C4.49388 48.2195 4.47973 48.0198 4.5048 47.8232C4.52987 47.6265 4.59366 47.4368 4.6925 47.265L21.435 17.5H6C5.60217 17.5 5.22064 17.342 4.93934 17.0607C4.65803 16.7794 4.5 16.3978 4.5 16C4.5 15.6022 4.65803 15.2206 4.93934 14.9393C5.22064 14.658 5.60217 14.5 6 14.5H58C58.3978 14.5 58.7794 14.658 59.0607 14.9393C59.342 15.2206 59.5 15.6022 59.5 16C59.5 16.3978 59.342 16.7794 59.0607 17.0607C58.7794 17.342 58.3978 17.5 58 17.5H42.565L59.315 47.265C59.4112 47.4372 59.4725 47.6266 59.4954 47.8225C59.5184 48.0183 59.5024 48.2168 59.4486 48.4065C59.3947 48.5962 59.3039 48.7735 59.1815 48.9281C59.0591 49.0827 58.9073 49.2116 58.735 49.3075ZM32 28.5C31.6022 28.5 31.2206 28.658 30.9393 28.9393C30.658 29.2206 30.5 29.6022 30.5 30V34C30.5 34.3978 30.658 34.7794 30.9393 35.0607C31.2206 35.342 31.6022 35.5 32 35.5C32.3978 35.5 32.7794 35.342 33.0607 35.0607C33.342 34.7794 33.5 34.3978 33.5 34V30C33.5 29.6022 33.342 29.2206 33.0607 28.9393C32.7794 28.658 32.3978 28.5 32 28.5ZM32 42.5C31.6022 42.5 31.2206 42.658 30.9393 42.9393C30.658 43.2206 30.5 43.6022 30.5 44V48C30.5 48.3978 30.658 48.7794 30.9393 49.0607C31.2206 49.342 31.6022 49.5 32 49.5C32.3978 49.5 32.7794 49.342 33.0607 49.0607C33.342 48.7794 33.5 48.3978 33.5 48V44C33.5 43.6022 33.342 43.2206 33.0607 42.9393C32.7794 42.658 32.3978 42.5 32 42.5Z" fill="white"/>
</svg>
