<svg width="64" height="64" viewBox="0 0 64 64" fill="none" xmlns="http://www.w3.org/2000/svg">
<path d="M46 8.5H18C16.0109 8.5 14.1032 9.29018 12.6967 10.6967C11.2902 12.1032 10.5 14.0109 10.5 16V52C10.5 52.9283 10.8687 53.8185 11.5251 54.4749C12.1815 55.1312 13.0717 55.5 14 55.5H20C20.9283 55.5 21.8185 55.1312 22.4749 54.4749C23.1313 53.8185 23.5 52.9283 23.5 52V47.5H40.5V52C40.5 52.9283 40.8688 53.8185 41.5251 54.4749C42.1815 55.1312 43.0717 55.5 44 55.5H50C50.9283 55.5 51.8185 55.1312 52.4749 54.4749C53.1312 53.8185 53.5 52.9283 53.5 52V16C53.5 14.0109 52.7098 12.1032 51.3033 10.6967C49.8968 9.29018 47.9891 8.5 46 8.5ZM13.5 44.5V29.5H50.5V44.5H13.5ZM13.5 19.5H50.5V26.5H13.5V19.5ZM18 11.5H46C47.1935 11.5 48.3381 11.9741 49.182 12.818C50.0259 13.6619 50.5 14.8065 50.5 16V16.5H13.5V16C13.5 14.8065 13.9741 13.6619 14.818 12.818C15.6619 11.9741 16.8065 11.5 18 11.5ZM20.5 52C20.5 52.1326 20.4473 52.2598 20.3536 52.3536C20.2598 52.4473 20.1326 52.5 20 52.5H14C13.8674 52.5 13.7402 52.4473 13.6464 52.3536C13.5527 52.2598 13.5 52.1326 13.5 52V47.5H20.5V52ZM50 52.5H44C43.8674 52.5 43.7402 52.4473 43.6464 52.3536C43.5527 52.2598 43.5 52.1326 43.5 52V47.5H50.5V52C50.5 52.1326 50.4473 52.2598 50.3536 52.3536C50.2598 52.4473 50.1326 52.5 50 52.5ZM25.5 37C25.5 37.4945 25.3534 37.9778 25.0787 38.3889C24.804 38.8001 24.4135 39.1205 23.9567 39.3097C23.4999 39.4989 22.9972 39.5484 22.5123 39.452C22.0273 39.3555 21.5819 39.1174 21.2322 38.7678C20.8826 38.4181 20.6445 37.9727 20.548 37.4877C20.4516 37.0028 20.5011 36.5001 20.6903 36.0433C20.8795 35.5865 21.2 35.196 21.6111 34.9213C22.0222 34.6466 22.5055 34.5 23 34.5C23.663 34.5 24.2989 34.7634 24.7678 35.2322C25.2366 35.7011 25.5 36.337 25.5 37ZM43.5 37C43.5 37.4945 43.3534 37.9778 43.0787 38.3889C42.804 38.8001 42.4135 39.1205 41.9567 39.3097C41.4999 39.4989 40.9972 39.5484 40.5123 39.452C40.0273 39.3555 39.5819 39.1174 39.2322 38.7678C38.8826 38.4181 38.6445 37.9727 38.548 37.4877C38.4516 37.0028 38.5011 36.5001 38.6903 36.0433C38.8795 35.5865 39.2 35.196 39.6111 34.9213C40.0222 34.6466 40.5055 34.5 41 34.5C41.663 34.5 42.2989 34.7634 42.7678 35.2322C43.2366 35.7011 43.5 36.337 43.5 37ZM61.5 20V26C61.5 26.3978 61.342 26.7794 61.0607 27.0607C60.7794 27.342 60.3978 27.5 60 27.5C59.6022 27.5 59.2206 27.342 58.9393 27.0607C58.658 26.7794 58.5 26.3978 58.5 26V20C58.5 19.6022 58.658 19.2206 58.9393 18.9393C59.2206 18.658 59.6022 18.5 60 18.5C60.3978 18.5 60.7794 18.658 61.0607 18.9393C61.342 19.2206 61.5 19.6022 61.5 20ZM5.5 20V26C5.5 26.3978 5.34196 26.7794 5.06066 27.0607C4.77936 27.342 4.39782 27.5 4 27.5C3.60218 27.5 3.22064 27.342 2.93934 27.0607C2.65804 26.7794 2.5 26.3978 2.5 26V20C2.5 19.6022 2.65804 19.2206 2.93934 18.9393C3.22064 18.658 3.60218 18.5 4 18.5C4.39782 18.5 4.77936 18.658 5.06066 18.9393C5.34196 19.2206 5.5 19.6022 5.5 20Z" fill="white"/>
</svg>
