<svg width="64" height="64" viewBox="0 0 64 64" fill="none" xmlns="http://www.w3.org/2000/svg">
<path d="M51.4125 20.52C48.8661 17.9683 45.8397 15.946 42.5079 14.5695C39.1762 13.193 35.6049 12.4897 32 12.5H31.9025C16.7925 12.5525 4.5 25.015 4.5 40.2825V46C4.5 46.9282 4.86875 47.8185 5.52513 48.4749C6.1815 49.1312 7.07174 49.5 8 49.5H56C56.9283 49.5 57.8185 49.1312 58.4749 48.4749C59.1312 47.8185 59.5 46.9282 59.5 46V40C59.5099 36.3791 58.8 32.7924 57.4116 29.4482C56.0232 26.104 53.984 23.0692 51.4125 20.52ZM56.5 46C56.5 46.1326 56.4473 46.2598 56.3536 46.3535C56.2598 46.4473 56.1326 46.5 56 46.5H28.945L43.2125 26.8825C43.4365 26.5605 43.5254 26.1635 43.4602 25.7767C43.395 25.3899 43.1809 25.0441 42.8638 24.8133C42.5466 24.5824 42.1517 24.485 41.7636 24.5419C41.3755 24.5988 41.0251 24.8054 40.7875 25.1175L25.235 46.5H8C7.86739 46.5 7.74021 46.4473 7.64645 46.3535C7.55268 46.2598 7.5 46.1326 7.5 46V40.2825C7.50109 39.3529 7.55283 38.424 7.655 37.5H14C14.3978 37.5 14.7794 37.342 15.0607 37.0607C15.342 36.7793 15.5 36.3978 15.5 36C15.5 35.6022 15.342 35.2206 15.0607 34.9393C14.7794 34.658 14.3978 34.5 14 34.5H8.1775C10.65 24.1 19.6325 16.215 30.5 15.5475V22C30.5 22.3978 30.658 22.7793 30.9393 23.0606C31.2206 23.342 31.6022 23.5 32 23.5C32.3978 23.5 32.7794 23.342 33.0607 23.0606C33.342 22.7793 33.5 22.3978 33.5 22V15.5475C38.7754 15.8713 43.8049 17.8915 47.8384 21.307C51.872 24.7224 54.6936 29.3501 55.8825 34.5H50C49.6022 34.5 49.2206 34.658 48.9393 34.9393C48.658 35.2206 48.5 35.6022 48.5 36C48.5 36.3978 48.658 36.7793 48.9393 37.0607C49.2206 37.342 49.6022 37.5 50 37.5H56.375C56.4575 38.325 56.5 39.16 56.5 40V46Z" fill="white"/>
</svg>
