<svg width="64" height="64" viewBox="0 0 64 64" fill="none" xmlns="http://www.w3.org/2000/svg">
<path d="M58.7675 47.2725L36.9025 9.30498C36.4003 8.45109 35.6838 7.74318 34.8239 7.25132C33.964 6.75947 32.9906 6.50073 32 6.50073C31.0094 6.50073 30.0359 6.75947 29.176 7.25132C28.3162 7.74318 27.5997 8.45109 27.0975 9.30498L5.23247 47.2725C4.75119 48.0963 4.49756 49.0333 4.49756 49.9875C4.49756 50.9416 4.75119 51.8786 5.23247 52.7025C5.72795 53.5624 6.44351 54.2748 7.30558 54.7664C8.16765 55.2581 9.14511 55.5113 10.1375 55.5H53.8625C54.854 55.5104 55.8304 55.2568 56.6915 54.7652C57.5526 54.2735 58.2674 53.5616 58.7625 52.7025C59.2445 51.8791 59.499 50.9423 59.4999 49.9882C59.5008 49.034 59.248 48.0968 58.7675 47.2725ZM56.165 51.2C55.9313 51.6017 55.5948 51.9339 55.1901 52.1624C54.7854 52.3909 54.3272 52.5074 53.8625 52.5H10.1375C9.67278 52.5074 9.2145 52.3909 8.80981 52.1624C8.40511 51.9339 8.06862 51.6017 7.83497 51.2C7.6159 50.8326 7.50025 50.4128 7.50025 49.985C7.50025 49.5572 7.6159 49.1374 7.83497 48.77L29.6975 10.8025C29.9365 10.4054 30.2741 10.0769 30.6775 9.84891C31.081 9.62087 31.5365 9.50104 32 9.50104C32.4634 9.50104 32.919 9.62087 33.3224 9.84891C33.7258 10.0769 34.0635 10.4054 34.3025 10.8025L56.1675 48.77C56.3862 49.1376 56.5014 49.5576 56.5009 49.9853C56.5005 50.4131 56.3844 50.8328 56.165 51.2Z" fill="white"/>
</svg>
