<svg width="64" height="64" viewBox="0 0 64 64" fill="none" xmlns="http://www.w3.org/2000/svg">
<path d="M56 12.5H40C38.4055 12.5012 36.8369 12.9037 35.4388 13.6705C34.0407 14.4372 32.8581 15.5436 32 16.8875C31.1419 15.5436 29.9593 14.4372 28.5612 13.6705C27.1631 12.9037 25.5945 12.5012 24 12.5H8C7.07174 12.5 6.1815 12.8687 5.52513 13.5251C4.86875 14.1815 4.5 15.0717 4.5 16V48C4.5 48.9283 4.86875 49.8185 5.52513 50.4749C6.1815 51.1312 7.07174 51.5 8 51.5H24C25.7239 51.5 27.3772 52.1848 28.5962 53.4038C29.8152 54.6228 30.5 56.2761 30.5 58C30.5 58.3978 30.658 58.7794 30.9393 59.0607C31.2206 59.342 31.6022 59.5 32 59.5C32.3978 59.5 32.7794 59.342 33.0607 59.0607C33.342 58.7794 33.5 58.3978 33.5 58C33.5 56.2761 34.1848 54.6228 35.4038 53.4038C36.6228 52.1848 38.2761 51.5 40 51.5H56C56.9283 51.5 57.8185 51.1312 58.4749 50.4749C59.1312 49.8185 59.5 48.9283 59.5 48V16C59.5 15.0717 59.1312 14.1815 58.4749 13.5251C57.8185 12.8687 56.9283 12.5 56 12.5ZM24 48.5H8C7.86739 48.5 7.74021 48.4473 7.64645 48.3536C7.55268 48.2598 7.5 48.1326 7.5 48V16C7.5 15.8674 7.55268 15.7402 7.64645 15.6464C7.74021 15.5527 7.86739 15.5 8 15.5H24C25.7239 15.5 27.3772 16.1848 28.5962 17.4038C29.8152 18.6228 30.5 20.2761 30.5 22V51.0775C28.7418 49.4202 26.4162 48.498 24 48.5ZM56.5 48C56.5 48.1326 56.4473 48.2598 56.3536 48.3536C56.2598 48.4473 56.1326 48.5 56 48.5H40C37.5835 48.4989 35.258 49.422 33.5 51.08V22C33.5 20.2761 34.1848 18.6228 35.4038 17.4038C36.6228 16.1848 38.2761 15.5 40 15.5H56C56.1326 15.5 56.2598 15.5527 56.3536 15.6464C56.4473 15.7402 56.5 15.8674 56.5 16V48Z" fill="white"/>
</svg>
