<svg width="64" height="64" viewBox="0 0 64 64" fill="none" xmlns="http://www.w3.org/2000/svg">
<path d="M60 28.5H56.975L49.8975 12.5775C49.6224 11.9591 49.174 11.4338 48.6065 11.0651C48.039 10.6964 47.3768 10.5001 46.7 10.5H17.3C16.6232 10.5001 15.961 10.6964 15.3935 11.0651C14.826 11.4338 14.3776 11.9591 14.1025 12.5775L7.025 28.5H4C3.60218 28.5 3.22064 28.658 2.93934 28.9393C2.65804 29.2206 2.5 29.6022 2.5 30C2.5 30.3978 2.65804 30.7794 2.93934 31.0607C3.22064 31.342 3.60218 31.5 4 31.5H6.5V52C6.5 52.9283 6.86875 53.8185 7.52513 54.4749C8.1815 55.1312 9.07174 55.5 10 55.5H16C16.9283 55.5 17.8185 55.1312 18.4749 54.4749C19.1313 53.8185 19.5 52.9283 19.5 52V47.5H44.5V52C44.5 52.9283 44.8688 53.8185 45.5251 54.4749C46.1815 55.1312 47.0717 55.5 48 55.5H54C54.9283 55.5 55.8185 55.1312 56.4749 54.4749C57.1312 53.8185 57.5 52.9283 57.5 52V31.5H60C60.3978 31.5 60.7794 31.342 61.0607 31.0607C61.342 30.7794 61.5 30.3978 61.5 30C61.5 29.6022 61.342 29.2206 61.0607 28.9393C60.7794 28.658 60.3978 28.5 60 28.5ZM16.8425 13.7975C16.8817 13.7089 16.9459 13.6336 17.0271 13.5808C17.1083 13.528 17.2031 13.4999 17.3 13.5H46.7C46.7969 13.4999 46.8917 13.528 46.9729 13.5808C47.0541 13.6336 47.1183 13.7089 47.1575 13.7975L53.6925 28.5H10.3075L16.8425 13.7975ZM16.5 52C16.5 52.1326 16.4473 52.2598 16.3536 52.3536C16.2598 52.4473 16.1326 52.5 16 52.5H10C9.86739 52.5 9.74021 52.4473 9.64645 52.3536C9.55268 52.2598 9.5 52.1326 9.5 52V47.5H16.5V52ZM54 52.5H48C47.8674 52.5 47.7402 52.4473 47.6464 52.3536C47.5527 52.2598 47.5 52.1326 47.5 52V47.5H54.5V52C54.5 52.1326 54.4473 52.2598 54.3536 52.3536C54.2598 52.4473 54.1326 52.5 54 52.5ZM54.5 44.5H9.5V31.5H54.5V44.5ZM14.5 38C14.5 37.6022 14.658 37.2206 14.9393 36.9393C15.2206 36.658 15.6022 36.5 16 36.5H20C20.3978 36.5 20.7794 36.658 21.0607 36.9393C21.342 37.2206 21.5 37.6022 21.5 38C21.5 38.3978 21.342 38.7794 21.0607 39.0607C20.7794 39.342 20.3978 39.5 20 39.5H16C15.6022 39.5 15.2206 39.342 14.9393 39.0607C14.658 38.7794 14.5 38.3978 14.5 38ZM42.5 38C42.5 37.6022 42.658 37.2206 42.9393 36.9393C43.2206 36.658 43.6022 36.5 44 36.5H48C48.3978 36.5 48.7794 36.658 49.0607 36.9393C49.342 37.2206 49.5 37.6022 49.5 38C49.5 38.3978 49.342 38.7794 49.0607 39.0607C48.7794 39.342 48.3978 39.5 48 39.5H44C43.6022 39.5 43.2206 39.342 42.9393 39.0607C42.658 38.7794 42.5 38.3978 42.5 38Z" fill="white"/>
</svg>
