<svg width="65" height="64" viewBox="0 0 65 64" fill="none" xmlns="http://www.w3.org/2000/svg">
<g clip-path="url(#clip0_186_25559)">
<path d="M54.6207 30.5C53.9519 30.5005 53.285 30.5692 52.6306 30.705L50.8023 26C52.0472 25.6676 53.3311 25.4995 54.6207 25.5C55.0231 25.5 55.409 25.342 55.6935 25.0607C55.9781 24.7794 56.1379 24.3978 56.1379 24C56.1379 23.6022 55.9781 23.2206 55.6935 22.9393C55.409 22.658 55.0231 22.5 54.6207 22.5H49.4393L45.9218 13.4625C45.8119 13.1793 45.6177 12.9358 45.3649 12.7639C45.1121 12.5921 44.8125 12.5001 44.5057 12.5H36.4138C36.0114 12.5 35.6255 12.658 35.3409 12.9393C35.0564 13.2206 34.8965 13.6022 34.8965 14C34.8965 14.3978 35.0564 14.7794 35.3409 15.0607C35.6255 15.342 36.0114 15.5 36.4138 15.5H43.4639L46.1873 22.5H38.4368C33.885 22.5 30.1981 23.5375 27.7908 25.5C27.1288 26.0287 26.3304 26.3638 25.4859 26.4677C24.6414 26.5715 23.7843 26.4398 23.0115 26.0875C19.6988 24.595 7.68733 19.7975 6.57469 19.365L5.12825 18.805C4.78529 18.6495 4.42032 18.5466 4.04595 18.5C3.6917 18.5002 3.3487 18.623 3.07641 18.8471C2.80412 19.0711 2.61971 19.3823 2.55515 19.7266C2.49059 20.071 2.54995 20.4268 2.72294 20.7325C2.89593 21.0381 3.17164 21.2743 3.50228 21.4C3.6186 21.445 15.4202 25.965 21.7673 28.8175C23.0566 29.3993 24.4844 29.6139 25.8903 29.4372C27.2961 29.2605 28.6242 28.6996 29.7253 27.8175C31.5814 26.3175 34.5931 25.505 38.4393 25.505H44.7333C41.2478 27.8225 38.7094 31.2899 37.5719 35.2875C37.2969 36.2194 36.722 37.0373 35.9343 37.617C35.1467 38.1968 34.1893 38.5068 33.2073 38.5H19.6027C19.2211 36.1407 17.9543 34.0101 16.0547 32.533C14.1551 31.0558 11.7623 30.3406 9.35307 30.5298C6.94388 30.7191 4.69528 31.7988 3.05542 33.554C1.41556 35.3091 0.504883 37.6107 0.504883 40C0.504883 42.3893 1.41556 44.6909 3.05542 46.446C4.69528 48.2012 6.94388 49.2809 9.35307 49.4702C11.7623 49.6594 14.1551 48.9442 16.0547 47.467C17.9543 45.9899 19.2211 43.8593 19.6027 41.5H33.2073C34.8515 41.504 36.4522 40.978 37.7668 40.0018C39.0815 39.0255 40.0384 37.6522 40.4926 36.09C41.0423 34.1601 41.9908 32.3639 43.2783 30.8148C44.5658 29.2657 46.1642 27.9974 47.9726 27.09L49.8009 31.79C47.7869 32.9492 46.2677 34.7924 45.526 36.9766C44.7844 39.1607 44.8708 41.5369 45.7693 43.6627C46.6678 45.7885 48.3171 47.5191 50.4101 48.5322C52.5031 49.5453 54.8972 49.7719 57.1466 49.1699C59.3961 48.5678 61.3476 47.1781 62.6378 45.2595C63.928 43.3409 64.4689 41.0241 64.16 38.7405C63.851 36.4569 62.7132 34.3621 60.9583 32.8462C59.2034 31.3302 56.9511 30.4964 54.6207 30.5ZM10.1149 41.5H16.5101C16.1382 43.0501 15.2034 44.4113 13.8833 45.3249C12.5632 46.2386 10.9496 46.6411 9.34905 46.456C7.7485 46.2709 6.27244 45.5111 5.20119 44.321C4.12995 43.1308 3.53813 41.5931 3.53813 40C3.53813 38.4069 4.12995 36.8692 5.20119 35.679C6.27244 34.4889 7.7485 33.7291 9.34905 33.544C10.9496 33.3589 12.5632 33.7614 13.8833 34.6751C15.2034 35.5887 16.1382 36.9499 16.5101 38.5H10.1149C9.71252 38.5 9.32661 38.658 9.04207 38.9393C8.75753 39.2206 8.59768 39.6022 8.59768 40C8.59768 40.3978 8.75753 40.7794 9.04207 41.0607C9.32661 41.342 9.71252 41.5 10.1149 41.5ZM54.6207 46.5C53.2169 46.4993 51.8503 46.0544 50.7207 45.2305C49.5912 44.4066 48.758 43.2469 48.3431 41.9211C47.9282 40.5953 47.9534 39.1731 48.415 37.8625C48.8766 36.5519 49.7504 35.4218 50.9085 34.6375L53.2046 40.5375C53.3549 40.9004 53.6429 41.1906 54.007 41.3461C54.371 41.5016 54.7822 41.51 55.1525 41.3695C55.5227 41.2289 55.8226 40.9507 55.9879 40.5942C56.1532 40.2378 56.1707 39.8316 56.0368 39.4625L53.7407 33.56C54.0324 33.521 54.3263 33.501 54.6207 33.5C56.3644 33.5 58.0367 34.1848 59.2697 35.4038C60.5027 36.6228 61.1954 38.2761 61.1954 40C61.1954 41.7239 60.5027 43.3772 59.2697 44.5962C58.0367 45.8152 56.3644 46.5 54.6207 46.5Z" fill="white"/>
</g>
<defs>
<clipPath id="clip0_186_25559">
<rect width="64.7356" height="64" fill="white"/>
</clipPath>
</defs>
</svg>
