<svg width="64" height="64" viewBox="0 0 64 64" fill="none" xmlns="http://www.w3.org/2000/svg">
<path d="M32 14.5C30.5166 14.5 29.0666 14.9399 27.8332 15.764C26.5999 16.5881 25.6386 17.7594 25.0709 19.1299C24.5032 20.5003 24.3547 22.0083 24.6441 23.4632C24.9335 24.918 25.6478 26.2544 26.6967 27.3033C27.7456 28.3522 29.082 29.0665 30.5368 29.3559C31.9917 29.6453 33.4997 29.4968 34.8701 28.9291C36.2406 28.3614 37.4119 27.4001 38.236 26.1668C39.0601 24.9334 39.5 23.4834 39.5 22C39.5 20.0109 38.7098 18.1032 37.3033 16.6967C35.8968 15.2902 33.9891 14.5 32 14.5ZM32 26.5C31.11 26.5 30.24 26.2361 29.4999 25.7416C28.7599 25.2471 28.1831 24.5443 27.8425 23.7221C27.5019 22.8998 27.4128 21.995 27.5865 21.1221C27.7601 20.2492 28.1887 19.4474 28.818 18.818C29.4474 18.1887 30.2492 17.7601 31.1221 17.5865C31.995 17.4128 32.8998 17.5019 33.7221 17.8425C34.5443 18.1831 35.2471 18.7599 35.7416 19.4999C36.2361 20.24 36.5 21.11 36.5 22C36.5 23.1935 36.0259 24.3381 35.182 25.182C34.3381 26.0259 33.1935 26.5 32 26.5ZM32 34.5C30.5166 34.5 29.0666 34.9399 27.8332 35.764C26.5999 36.5881 25.6386 37.7594 25.0709 39.1299C24.5032 40.5003 24.3547 42.0083 24.6441 43.4632C24.9335 44.918 25.6478 46.2544 26.6967 47.3033C27.7456 48.3522 29.082 49.0665 30.5368 49.3559C31.9917 49.6453 33.4997 49.4968 34.8701 48.9291C36.2406 48.3614 37.4119 47.4001 38.236 46.1668C39.0601 44.9334 39.5 43.4834 39.5 42C39.5 40.0109 38.7098 38.1032 37.3033 36.6967C35.8968 35.2902 33.9891 34.5 32 34.5ZM32 46.5C31.11 46.5 30.24 46.2361 29.4999 45.7416C28.7599 45.2471 28.1831 44.5443 27.8425 43.7221C27.5019 42.8998 27.4128 41.995 27.5865 41.1221C27.7601 40.2492 28.1887 39.4474 28.818 38.818C29.4474 38.1887 30.2492 37.7601 31.1221 37.5865C31.995 37.4128 32.8998 37.5019 33.7221 37.8425C34.5443 38.1831 35.2471 38.7599 35.7416 39.4999C36.2361 40.24 36.5 41.11 36.5 42C36.5 43.1935 36.0259 44.3381 35.182 45.182C34.3381 46.0259 33.1935 46.5 32 46.5ZM54 36.5H49.5V19.5H54C54.3978 19.5 54.7794 19.342 55.0607 19.0607C55.342 18.7794 55.5 18.3978 55.5 18C55.5 17.6022 55.342 17.2206 55.0607 16.9393C54.7794 16.658 54.3978 16.5 54 16.5H49.5V10C49.5 9.07174 49.1312 8.1815 48.4749 7.52513C47.8185 6.86875 46.9283 6.5 46 6.5H18C17.0717 6.5 16.1815 6.86875 15.5251 7.52513C14.8687 8.1815 14.5 9.07174 14.5 10V16.5H10C9.60218 16.5 9.22064 16.658 8.93934 16.9393C8.65804 17.2206 8.5 17.6022 8.5 18C8.5 18.3978 8.65804 18.7794 8.93934 19.0607C9.22064 19.342 9.60218 19.5 10 19.5H14.5V36.5H10C9.60218 36.5 9.22064 36.658 8.93934 36.9393C8.65804 37.2206 8.5 37.6022 8.5 38C8.5 38.3978 8.65804 38.7794 8.93934 39.0607C9.22064 39.342 9.60218 39.5 10 39.5H14.5V54C14.5 54.9283 14.8687 55.8185 15.5251 56.4749C16.1815 57.1312 17.0717 57.5 18 57.5H46C46.9283 57.5 47.8185 57.1312 48.4749 56.4749C49.1312 55.8185 49.5 54.9283 49.5 54V39.5H54C54.3978 39.5 54.7794 39.342 55.0607 39.0607C55.342 38.7794 55.5 38.3978 55.5 38C55.5 37.6022 55.342 37.2206 55.0607 36.9393C54.7794 36.658 54.3978 36.5 54 36.5ZM46.5 54C46.5 54.1326 46.4473 54.2598 46.3536 54.3536C46.2598 54.4473 46.1326 54.5 46 54.5H18C17.8674 54.5 17.7402 54.4473 17.6464 54.3536C17.5527 54.2598 17.5 54.1326 17.5 54V10C17.5 9.86739 17.5527 9.74021 17.6464 9.64645C17.7402 9.55268 17.8674 9.5 18 9.5H46C46.1326 9.5 46.2598 9.55268 46.3536 9.64645C46.4473 9.74021 46.5 9.86739 46.5 10V54Z" fill="white"/>
</svg>
