<svg width="64" height="64" viewBox="0 0 64 64" fill="none" xmlns="http://www.w3.org/2000/svg">
<path d="M60 28.5H52.6225L41.6475 17.525C41.323 17.1993 40.9372 16.9411 40.5124 16.7652C40.0877 16.5893 39.6323 16.4992 39.1725 16.5H11.07C10.4938 16.4998 9.92656 16.6419 9.41848 16.9136C8.91041 17.1853 8.47727 17.5782 8.1575 18.0575L0.750004 29.1675C0.586331 29.4142 0.499345 29.7039 0.500004 30V42C0.500004 42.9283 0.868753 43.8185 1.52513 44.4749C2.18151 45.1313 3.07175 45.5 4 45.5H8.65C8.99428 47.1954 9.9141 48.7197 11.2536 49.8146C12.5931 50.9094 14.27 51.5075 16 51.5075C17.73 51.5075 19.4069 50.9094 20.7464 49.8146C22.0859 48.7197 23.0057 47.1954 23.35 45.5H40.65C40.9943 47.1954 41.9141 48.7197 43.2536 49.8146C44.5931 50.9094 46.27 51.5075 48 51.5075C49.73 51.5075 51.4069 50.9094 52.7464 49.8146C54.0859 48.7197 55.0057 47.1954 55.35 45.5H60C60.9283 45.5 61.8185 45.1313 62.4749 44.4749C63.1313 43.8185 63.5 42.9283 63.5 42V32C63.5 31.0717 63.1313 30.1815 62.4749 29.5251C61.8185 28.8688 60.9283 28.5 60 28.5ZM10.655 19.7225C10.7006 19.6542 10.7623 19.5982 10.8347 19.5593C10.9071 19.5205 10.9879 19.5002 11.07 19.5H39.1725C39.3049 19.5006 39.4317 19.5536 39.525 19.6475L48.38 28.5H4.8025L10.655 19.7225ZM16 48.5C15.11 48.5 14.24 48.2361 13.4999 47.7416C12.7599 47.2472 12.1831 46.5443 11.8425 45.7221C11.502 44.8998 11.4128 43.995 11.5865 43.1221C11.7601 42.2492 12.1887 41.4474 12.818 40.818C13.4474 40.1887 14.2492 39.7601 15.1221 39.5865C15.995 39.4128 16.8998 39.502 17.7221 39.8425C18.5443 40.1831 19.2472 40.7599 19.7416 41.4999C20.2361 42.24 20.5 43.11 20.5 44C20.5 45.1935 20.0259 46.3381 19.182 47.182C18.3381 48.0259 17.1935 48.5 16 48.5ZM48 48.5C47.11 48.5 46.24 48.2361 45.4999 47.7416C44.7599 47.2472 44.1831 46.5443 43.8425 45.7221C43.5019 44.8998 43.4128 43.995 43.5865 43.1221C43.7601 42.2492 44.1887 41.4474 44.818 40.818C45.4474 40.1887 46.2492 39.7601 47.1221 39.5865C47.995 39.4128 48.8998 39.502 49.7221 39.8425C50.5443 40.1831 51.2472 40.7599 51.7416 41.4999C52.2361 42.24 52.5 43.11 52.5 44C52.5 45.1935 52.0259 46.3381 51.182 47.182C50.3381 48.0259 49.1935 48.5 48 48.5ZM60.5 42C60.5 42.1326 60.4473 42.2598 60.3536 42.3536C60.2598 42.4473 60.1326 42.5 60 42.5H55.35C55.0057 40.8046 54.0859 39.2803 52.7464 38.1854C51.4069 37.0906 49.73 36.4925 48 36.4925C46.27 36.4925 44.5931 37.0906 43.2536 38.1854C41.9141 39.2803 40.9943 40.8046 40.65 42.5H23.35C23.0057 40.8046 22.0859 39.2803 20.7464 38.1854C19.4069 37.0906 17.73 36.4925 16 36.4925C14.27 36.4925 12.5931 37.0906 11.2536 38.1854C9.9141 39.2803 8.99428 40.8046 8.65 42.5H4C3.8674 42.5 3.74022 42.4473 3.64645 42.3536C3.55268 42.2598 3.5 42.1326 3.5 42V31.5H60C60.1326 31.5 60.2598 31.5527 60.3536 31.6465C60.4473 31.7402 60.5 31.8674 60.5 32V42Z" fill="white"/>
</svg>
