<svg width="65" height="64" viewBox="0 0 65 64" fill="none" xmlns="http://www.w3.org/2000/svg">
<path d="M58.6666 52.5H53.6774L38.3204 8.85C38.0788 8.16326 37.6268 7.56798 37.0272 7.14684C36.4277 6.7257 35.7104 6.49962 34.9749 6.5H29.7607C29.0252 6.49962 28.3079 6.7257 27.7083 7.14684C27.1088 7.56798 26.6568 8.16326 26.4151 8.85L11.0581 52.5H6.06894C5.66654 52.5 5.28062 52.658 4.99609 52.9393C4.71155 53.2206 4.5517 53.6022 4.5517 54C4.5517 54.3978 4.71155 54.7794 4.99609 55.0607C5.28062 55.342 5.66654 55.5 6.06894 55.5H58.6666C59.069 55.5 59.455 55.342 59.7395 55.0607C60.024 54.7794 60.1839 54.3978 60.1839 54C60.1839 53.6022 60.024 53.2206 59.7395 52.9393C59.455 52.658 59.069 52.5 58.6666 52.5ZM23.7701 25.5H40.9655L45.5374 38.5H19.1981L23.7701 25.5ZM29.2827 9.835C29.3174 9.73703 29.382 9.65214 29.4676 9.59211C29.5533 9.53209 29.6557 9.49989 29.7607 9.5H34.9749C35.0799 9.49989 35.1823 9.53209 35.2679 9.59211C35.3536 9.65214 35.4182 9.73703 35.4528 9.835L39.9085 22.5H24.8271L29.2827 9.835ZM18.1411 41.5H46.5945L50.4634 52.5H14.2722L18.1411 41.5Z" fill="white"/>
</svg>
