<svg width="64" height="64" viewBox="0 0 64 64" fill="none" xmlns="http://www.w3.org/2000/svg">
<path fill-rule="evenodd" clip-rule="evenodd" d="M3.33333 32C3.33333 16.168 16.168 3.33334 32 3.33334C32.377 3.33298 32.7465 3.43919 33.0658 3.63974C33.385 3.8403 33.6411 4.12701 33.8045 4.46682C33.9678 4.80664 34.0318 5.1857 33.989 5.56031C33.9462 5.93491 33.7984 6.28979 33.5627 6.58401L28.2293 13.2507C27.8976 13.6651 27.4149 13.9308 26.8873 13.9893C26.3597 14.0478 25.8304 13.8944 25.416 13.5627C25.0015 13.231 24.7358 12.7482 24.6773 12.2206C24.6188 11.693 24.7723 11.1638 25.104 10.7493L27.512 7.74134C21.8443 8.79058 16.723 11.7913 13.037 16.2226C9.35096 20.6539 7.33298 26.236 7.33333 32C7.3344 36.4469 8.5376 40.8108 10.8156 44.6299C13.0936 48.449 16.3616 51.5813 20.2739 53.6953C24.1862 55.8093 28.5972 56.8263 33.0402 56.6388C37.4831 56.4512 41.7927 55.0661 45.513 52.63C49.2332 50.1939 52.2257 46.7974 54.1738 42.7999C56.1219 38.8024 56.9531 34.3527 56.5794 29.9215C56.2058 25.4903 54.6412 21.2426 52.0513 17.6277C49.4613 14.0129 45.9423 11.1654 41.8667 9.38668C41.3804 9.1745 40.9984 8.77787 40.8046 8.28402C40.6108 7.79018 40.6212 7.23957 40.8333 6.75334C41.0455 6.26711 41.4421 5.88508 41.936 5.6913C42.4298 5.49751 42.9804 5.50784 43.4667 5.72001C48.5795 7.95217 52.93 11.6274 55.9852 16.2954C59.0403 20.9633 60.6673 26.4212 60.6667 32C60.6667 47.832 47.832 60.6667 32 60.6667C16.168 60.6667 3.33333 47.832 3.33333 32Z" fill="white"/>
<path d="M20.5307 38.1421H22.7527C24.3688 38.1421 25.1768 37.3002 25.1768 35.6164V33.0617C25.1768 31.3779 24.3688 30.536 22.7527 30.536H18.1066V35.6164C18.1066 37.3002 18.9146 38.1421 20.5307 38.1421ZM23.0125 40H20.271C18.9435 40 17.895 39.6226 17.1255 38.8678C16.3752 38.0937 16 37.0389 16 35.7035V25.6299C16 24.2945 16.3752 23.2494 17.1255 22.4946C17.895 21.7204 18.9435 21.3333 20.271 21.3333H25.8694C26.1387 21.3333 26.2734 21.4688 26.2734 21.7398V22.8139C26.2734 23.0655 26.1387 23.1913 25.8694 23.1913H20.5307C18.9146 23.1913 18.1066 24.0332 18.1066 25.717V28.6781H23.0125C24.3399 28.6781 25.3788 29.0555 26.1291 29.8103C26.8794 30.5651 27.2546 31.6198 27.2546 32.9746V35.7035C27.2546 37.0582 26.8794 38.113 26.1291 38.8678C25.3788 39.6226 24.3399 40 23.0125 40Z" fill="white"/>
<path d="M48 24.4396V40H45.7202V30.0715C45.7202 29.6651 45.7298 29.2393 45.7491 28.7942C45.7876 28.3491 45.826 27.9136 45.8645 27.4878H45.7779L40.7278 40H38.5923L33.6865 27.4878H33.5999C33.6384 27.9136 33.6576 28.3491 33.6576 28.7942C33.6769 29.2393 33.6865 29.6942 33.6865 30.1586V40H31.4067V24.4396H34.7831L39.6601 36.9518L44.6236 24.4396H48Z" fill="white"/>
</svg>
