<svg width="64" height="64" viewBox="0 0 64 64" fill="none" xmlns="http://www.w3.org/2000/svg">
<path fill-rule="evenodd" clip-rule="evenodd" d="M3.33331 32C3.33331 16.168 16.168 3.33334 32 3.33334C32.377 3.33298 32.7465 3.43919 33.0658 3.63974C33.385 3.8403 33.6411 4.12701 33.8045 4.46682C33.9678 4.80664 34.0318 5.1857 33.989 5.56031C33.9462 5.93491 33.7984 6.28979 33.5626 6.58401L28.2293 13.2507C27.8976 13.6651 27.4149 13.9308 26.8873 13.9893C26.3597 14.0478 25.8304 13.8944 25.416 13.5627C25.0015 13.231 24.7358 12.7482 24.6773 12.2206C24.6188 11.693 24.7723 11.1638 25.104 10.7493L27.512 7.74134C21.8443 8.79058 16.723 11.7913 13.037 16.2226C9.35094 20.6539 7.33296 26.236 7.33331 32C7.33439 36.4469 8.53758 40.8108 10.8156 44.6299C13.0936 48.449 16.3616 51.5813 20.2739 53.6953C24.1862 55.8093 28.5972 56.8263 33.0402 56.6388C37.4831 56.4512 41.7927 55.0661 45.513 52.63C49.2332 50.1939 52.2257 46.7974 54.1738 42.7999C56.1219 38.8024 56.9531 34.3527 56.5794 29.9215C56.2058 25.4903 54.6412 21.2426 52.0512 17.6277C49.4613 14.0129 45.9423 11.1654 41.8666 9.38668C41.3804 9.1745 40.9984 8.77787 40.8046 8.28402C40.6108 7.79018 40.6211 7.23957 40.8333 6.75334C41.0455 6.26711 41.4421 5.88508 41.936 5.6913C42.4298 5.49751 42.9804 5.50784 43.4666 5.72001C48.5795 7.95217 52.93 11.6274 55.9852 16.2954C59.0403 20.9633 60.6672 26.4212 60.6666 32C60.6666 47.832 47.832 60.6667 32 60.6667C16.168 60.6667 3.33331 47.832 3.33331 32Z" fill="white"/>
<path d="M16 24.3898V22.7309C16 22.3162 16.1702 22.0121 16.5105 21.8185L21.4449 19.0399C21.8986 18.7911 22.2673 18.6667 22.5509 18.6667H24.3375C24.7345 18.6667 24.933 18.8602 24.933 19.2473V44.7527C24.933 45.1398 24.7345 45.3333 24.3375 45.3333H22.4233C22.0262 45.3333 21.8277 45.1398 21.8277 44.7527V21.9015L16.7657 24.7216C16.2552 24.9981 16 24.8875 16 24.3898Z" fill="white"/>
<path d="M37.6207 42.6791H41.364C43.7462 42.6791 44.9373 41.5179 44.9373 39.1954V36.7071C44.9373 34.3293 43.7462 33.1405 41.364 33.1405H37.6207C35.2385 33.1405 34.0475 34.3293 34.0475 36.7071V39.1954C34.0475 41.5179 35.2385 42.6791 37.6207 42.6791ZM37.6207 30.6936H41.364C43.7462 30.6936 44.9373 29.4909 44.9373 27.0855V24.8046C44.9373 22.4821 43.7462 21.3209 41.364 21.3209H37.6207C35.2385 21.3209 34.0475 22.4821 34.0475 24.8046V27.0855C34.0475 29.4909 35.2385 30.6936 37.6207 30.6936ZM41.7469 45.3333H37.2378C35.2811 45.3333 33.7497 44.8218 32.6437 43.7988C31.5377 42.7482 30.9847 41.2829 30.9847 39.4028V36.873C30.9847 34.3846 31.9773 32.7258 33.9624 31.8963C31.9773 31.1498 30.9847 29.4909 30.9847 26.9196V24.5972C30.9847 22.6895 31.5377 21.2241 32.6437 20.2011C33.7497 19.1781 35.2811 18.6667 37.2378 18.6667H41.7469C43.7036 18.6667 45.235 19.1781 46.341 20.2011C47.447 21.2241 48 22.6895 48 24.5972V26.9196C48 28.1915 47.7306 29.2697 47.1918 30.1545C46.653 31.0116 45.9298 31.5922 45.0223 31.8963C47.0074 32.6981 48 34.3708 48 36.9145V39.4028C48 41.2829 47.447 42.7482 46.341 43.7988C45.235 44.8218 43.7036 45.3333 41.7469 45.3333Z" fill="white"/>
</svg>
